<svg xmlns="http://www.w3.org/2000/svg" viewBox="0 0 48 48" id="accounting"><path d="M8,40H24.06v2H8a3,3,0,0,1-3-3V7A3,3,0,0,1,8,4h6V6H8A1,1,0,0,0,7,7V39A1,1,0,0,0,8,40ZM37,7V18h2V7a3,3,0,0,0-3-3H30V6h6A1,1,0,0,1,37,7ZM14,10V8H10A1,1,0,0,0,9,9V37a1,1,0,0,0,1,1H24V36H11V10Zm19,7.93h2V9a1,1,0,0,0-1-1H30v2h3ZM15,11V3a1,1,0,0,1,1-1H28a1,1,0,0,1,1,1v8a1,1,0,0,1-1,1H16A1,1,0,0,1,15,11Zm2-1H27V4H17Zm12,6H15v2H29Zm-5,6H15v2h9Zm0,6H15v2h9ZM20,8h4V6H20ZM44,23V43a3,3,0,0,1-3,3H29a3,3,0,0,1-3-3V23a3,3,0,0,1,3-3H41A3,3,0,0,1,44,23Zm-2,0a1,1,0,0,0-1-1H29a1,1,0,0,0-1,1V43a1,1,0,0,0,1,1H41a1,1,0,0,0,1-1Zm-2,2v4a1,1,0,0,1-1,1H31a1,1,0,0,1-1-1V25a1,1,0,0,1,1-1h8A1,1,0,0,1,40,25Zm-2,1H32v2h6Zm-8,8h4V32H30Zm6,0h4V32H36Zm-6,4h4V36H30Zm6,0h4V36H36Zm-6,4h4V40H30Zm6,0h4V40H36Z" data-name="66 Accounting, Business, Calculate, Finance, Math"></path></svg>